<?xml version="1.0" encoding="utf-8"?>
<!-- Generator: Adobe Illustrator 26.4.1, SVG Export Plug-In . SVG Version: 6.00 Build 0)  -->
<svg version="1.1" id="Capa_1" xmlns="http://www.w3.org/2000/svg" xmlns:xlink="http://www.w3.org/1999/xlink" x="0px" y="0px"
	 viewBox="0 0 512 348.9" style="enable-background:new 0 0 512 348.9;" xml:space="preserve">
<style type="text/css">
	.st0{fill:#FFFFFF;}
</style>
<path class="st0" d="M233.2,248.7l-26.8,38.5h-14.6l-4-38.5h13.6l1.5,26.5l17-26.5L233.2,248.7z"/>
<path class="st0" d="M240.1,287.1h-12.9l11.4-38.5h12.9L240.1,287.1z M253.4,243.2h-13.6l2.8-9.4h13.6L253.4,243.2z"/>
<path class="st0" d="M288.8,274.9c-1.2,4-4,7.2-8.4,9.6c-4.4,2.4-9.9,3.6-16.3,3.6c-3.2,0-6.3-0.3-9.4-1c-2.2-0.5-4.3-1.2-6.4-2.1
	l3-10.1h1.2c0.5,0.4,1.1,0.9,1.8,1.4c1,0.7,2,1.2,3.1,1.7c1.3,0.6,2.7,1,4.1,1.4c1.7,0.4,3.5,0.6,5.3,0.6c2,0.1,4-0.2,5.8-0.8
	c1.2-0.3,2.1-1.2,2.5-2.4c0.3-0.7,0.1-1.5-0.5-2c-1.2-0.6-2.4-1-3.7-1.2c-0.9-0.2-2.1-0.4-3.7-0.7c-1.4-0.2-2.8-0.5-4.2-0.9
	c-3.4-0.9-5.7-2.3-6.9-4.3s-1.4-4.3-0.5-7.2c1.1-3.7,3.8-6.8,8.2-9.2s9.8-3.7,16.1-3.7c2.8,0,5.6,0.3,8.4,0.9c2,0.4,4,1,5.9,1.9
	l-2.9,9.7h-1.1c-1.7-1.3-3.6-2.4-5.6-3.1c-2.3-0.8-4.7-1.2-7.1-1.2c-1.9,0-3.7,0.2-5.5,0.8c-1.6,0.5-2.5,1.3-2.8,2.3
	c-0.3,0.7-0.2,1.5,0.4,2.1c0.5,0.5,1.9,1,4.1,1.4c1.2,0.3,2.6,0.5,4,0.7s2.9,0.5,4.3,0.9c3.1,0.8,5.2,2.2,6.3,4
	S289.6,272.2,288.8,274.9z"/>
<path class="st0" d="M304.8,287.1h-12.9l11.4-38.5h12.9L304.8,287.1z M318.1,243.2h-13.6l2.8-9.4h13.6L318.1,243.2z"/>
<path class="st0" d="M340.8,286.8c-1.5,0.3-3.1,0.6-4.6,0.8c-1.9,0.2-3.8,0.3-5.8,0.3c-5,0-8.4-1-10.3-2.9s-2.1-5.3-0.7-10l5.3-18
	h-5.3l2.5-8.4h5.3l3.2-11h12.9l-3.2,11h12l-2.5,8.4h-12l-4,13.6c-0.4,1.4-0.7,2.5-1,3.5c-0.3,0.9-0.3,1.8-0.2,2.7
	c0.1,0.8,0.5,1.5,1.2,1.9c1.1,0.6,2.3,0.8,3.5,0.7c0.9,0,1.8-0.2,2.7-0.4c0.9-0.2,1.7-0.4,2.5-0.8h1.1L340.8,286.8z"/>
<path class="st0" d="M372,283.1c-0.8,0.5-1.9,1.1-3.1,1.8c-1.1,0.6-2.2,1.2-3.4,1.7c-1.4,0.5-2.8,0.9-4.3,1.2
	c-1.5,0.3-3,0.4-4.6,0.4c-3.8,0-6.7-1.1-8.6-3.4c-1.9-2.3-2.3-5.1-1.3-8.7c0.7-2.6,2.1-5,4-6.9c2-1.9,4.3-3.3,6.8-4.2
	c3.1-1.1,6.3-1.8,9.5-2.2c3.6-0.4,7.4-0.8,11.2-1l0.1-0.2c0.6-2.1,0.2-3.6-1.4-4.4c-1.6-0.8-4.1-1.2-7.6-1.2c-2.4,0-4.8,0.4-7.1,1.1
	c-2.6,0.7-4.5,1.3-5.7,1.7h-1.2l2.7-9.3c1.5-0.3,3.8-0.8,7-1.2c3.1-0.5,6.3-0.7,9.4-0.7c7.3,0,12.3,1.1,14.9,3.2
	c2.6,2.2,3.2,5.5,1.9,10.2l-7.7,26.2h-12.7L372,283.1z M373.8,277.1l2.4-8c-1.8,0.1-3.7,0.3-5.8,0.6c-1.6,0.2-3.3,0.4-4.9,0.8
	c-1.3,0.3-2.4,0.9-3.4,1.7c-0.9,0.8-1.6,1.8-1.9,2.9c-0.2,0.6-0.3,1.3-0.4,1.9c0,0.5,0.2,1.1,0.6,1.4c0.5,0.5,1,0.8,1.7,1
	c1.1,0.3,2.3,0.4,3.5,0.3c1.4,0,2.8-0.3,4.1-0.8C371.1,278.5,372.5,277.9,373.8,277.1L373.8,277.1z"/>
<path class="st0" d="M184.1,321.2h-22.9c-0.5,2.3-0.1,4.1,1.2,5.4s3.7,1.9,7,1.9c2.2,0,4.4-0.4,6.4-1.1c1.9-0.6,3.7-1.4,5.4-2.3h1.1
	l-2.3,7.7c-2.3,0.8-4.6,1.4-6.9,1.9c-2.2,0.4-4.5,0.6-6.8,0.6c-6.2,0-10.6-1.3-13.2-4c-2.5-2.7-3.1-6.5-1.6-11.5
	c1.3-4.7,4.2-8.9,8.2-11.7c4.2-2.9,9.1-4.4,14.2-4.3c5.1,0,8.5,1.2,10.3,3.7c1.8,2.5,2.1,6,0.7,10.6L184.1,321.2z M175.8,315.6
	c0.5-2,0.5-3.5-0.2-4.5s-2.1-1.5-4.1-1.5c-1.8,0-3.6,0.5-5.2,1.4c-1.6,1.1-2.8,2.7-3.4,4.6H175.8z"/>
<path class="st0" d="M201.8,335.2c-2.4,0-4.8-0.3-7.2-0.9c-1.9-0.5-3.6-1.5-5-2.9c-1.3-1.3-2.1-3-2.4-4.9c-0.3-2.3-0.1-4.7,0.7-6.9
	c0.7-2.6,1.9-5.1,3.6-7.2c1.5-2,3.4-3.7,5.6-5c2.1-1.3,4.3-2.2,6.6-2.8c2.3-0.6,4.7-0.9,7.1-0.9c1.9,0,3.8,0.2,5.7,0.7
	c1.6,0.4,3.1,1,4.5,1.7l-2.4,8.2h-1.4c-0.3-0.3-0.6-0.7-1.1-1.1c-0.5-0.5-1-0.9-1.6-1.2c-3.9-2.1-8.7-1.7-12.1,1.1
	c-2,1.7-3.4,4-4.1,6.6c-0.9,2.9-0.8,5.1,0.3,6.5s2.9,2.2,5.6,2.2c1.2,0,2.4-0.1,3.5-0.4c1-0.2,1.9-0.6,2.8-1c0.7-0.3,1.4-0.7,2-1.1
	c0.6-0.4,1.1-0.8,1.7-1.1h1.4l-2.4,8.2c-1.8,0.7-3.6,1.3-5.4,1.7C205.8,335,203.8,335.2,201.8,335.2z"/>
<path class="st0" d="M248.9,334.4h-10l1-3.3c-1.9,1.2-3.9,2.2-6,3.1c-1.8,0.7-3.8,1.1-5.8,1c-3.4,0-5.8-0.9-7.1-2.8
	s-1.4-4.7-0.3-8.4l5.7-19.4h10l-4.4,14.8c-0.4,1.2-0.7,2.5-1,3.8c-0.2,0.8-0.2,1.7,0,2.5c0.1,0.6,0.6,1.2,1.2,1.4
	c0.9,0.4,1.9,0.5,2.9,0.5c1,0,2-0.2,3-0.5c1.2-0.3,2.3-0.8,3.4-1.3l6.2-21.2h10L248.9,334.4z"/>
<path class="st0" d="M276.7,331.2c-0.6,0.4-1.5,0.9-2.4,1.4c-0.8,0.5-1.7,0.9-2.6,1.3c-1.1,0.4-2.2,0.7-3.3,0.9
	c-1.2,0.2-2.4,0.3-3.6,0.3c-3,0-5.2-0.9-6.6-2.6s-1.8-4-1-6.7c0.5-2,1.6-3.9,3.1-5.4c1.5-1.4,3.3-2.6,5.3-3.3
	c2.4-0.9,4.9-1.4,7.4-1.7c2.8-0.3,5.8-0.6,8.7-0.8v-0.2c0.5-1.6,0.1-2.8-1.1-3.4c-1.9-0.8-3.9-1.1-5.9-1c-1.9,0-3.7,0.3-5.5,0.8
	c-2,0.6-3.5,1-4.4,1.3h-0.9l2.1-7.2c1.1-0.3,2.9-0.6,5.4-0.9c2.4-0.4,4.9-0.5,7.3-0.5c5.7,0,9.5,0.8,11.6,2.5s2.5,4.3,1.5,7.9
	l-6,20.3h-9.9L276.7,331.2z M278,326.6l1.8-6.2c-1.4,0.1-2.9,0.3-4.5,0.4c-1.3,0.1-2.5,0.3-3.8,0.6c-1,0.2-1.9,0.7-2.7,1.3
	c-0.7,0.6-1.2,1.4-1.5,2.3c-0.2,0.5-0.3,1-0.3,1.5c0,0.4,0.2,0.8,0.5,1.1c0.4,0.4,0.8,0.7,1.3,0.8c0.9,0.2,1.8,0.3,2.7,0.2
	c1.1,0,2.2-0.2,3.2-0.6C276,327.7,277,327.2,278,326.6L278,326.6z"/>
<path class="st0" d="M323.7,334.4h-10l0.9-3.1c-1.8,1.2-3.7,2.2-5.7,3c-1.7,0.6-3.6,1-5.5,1c-3.8,0-6.4-1.4-7.8-4.2
	c-1.4-2.8-1.5-6.6-0.1-11.3c0.7-2.4,1.7-4.7,3.1-6.7c1.3-1.9,2.8-3.6,4.6-5c1.6-1.3,3.5-2.4,5.5-3.1c1.8-0.7,3.8-1.1,5.7-1.1
	c1.5-0.1,3,0.1,4.4,0.6c1.1,0.4,2.2,0.9,3.2,1.5l3.8-12.7h10L323.7,334.4z M316.1,326.1l4.3-14.7c-0.6-0.3-1.3-0.5-2-0.6
	c-0.7-0.1-1.4-0.2-2.1-0.2c-2.4-0.1-4.8,0.8-6.6,2.4c-1.9,1.8-3.3,4-3.9,6.5c-0.9,2.9-1,5.1-0.3,6.4s2.2,2,4.5,2c1,0,2-0.2,3-0.5
	C314.1,327.1,315.1,326.7,316.1,326.1L316.1,326.1z"/>
<path class="st0" d="M367.9,319.4c-1.3,4.6-4.1,8.7-7.9,11.6c-4,2.9-8.9,4.4-13.8,4.2c-5.4,0-9.2-1.4-11.3-4.2s-2.5-6.7-1-11.6
	c1.3-4.7,4.1-8.8,8-11.6c4-2.9,8.9-4.4,13.8-4.2c5.4,0,9.2,1.4,11.4,4.3C369,310.7,369.4,314.5,367.9,319.4z M353.5,326.7
	c0.9-0.8,1.7-1.7,2.3-2.8c0.8-1.4,1.4-2.9,1.8-4.5c0.5-1.4,0.7-2.9,0.8-4.4c0.1-1-0.1-2-0.5-2.9c-0.4-0.7-1-1.2-1.7-1.5
	c-0.8-0.3-1.7-0.5-2.6-0.5c-0.9,0-1.8,0.1-2.7,0.4c-1,0.3-1.8,0.8-2.6,1.5c-0.9,0.8-1.7,1.8-2.3,2.8c-0.8,1.4-1.4,3-1.9,4.5
	c-0.4,1.4-0.7,2.8-0.8,4.2c-0.1,1,0.1,2,0.5,2.9c0.4,0.7,1,1.2,1.7,1.5c0.8,0.3,1.8,0.5,2.7,0.5c0.9,0,1.8-0.2,2.7-0.4
	C351.9,327.9,352.7,327.4,353.5,326.7L353.5,326.7z"/>
<path class="st0" d="M397.9,313.6H397c-0.6-0.2-1.3-0.3-2-0.3c-0.9-0.1-1.7-0.1-2.3-0.1c-1.3,0-2.6,0.1-3.8,0.3
	c-1.3,0.2-2.6,0.5-3.8,0.9l-5.9,20h-10l8.8-29.9h10l-1.3,4.4c2.1-1.5,4.4-2.7,6.8-3.6c1.5-0.5,3.1-0.8,4.8-0.9h1.2
	c0.4,0,0.8,0,1.1,0.1L397.9,313.6z"/>
<path class="st0" d="M401.8,334.4h-7.2l2.1-7.3h7.3L401.8,334.4z"/>
<path class="st0" d="M418.8,334.9c-1.7,0-3.4-0.2-5-0.6c-1.3-0.4-2.5-1.1-3.5-2c-0.9-0.9-1.5-2.1-1.7-3.4c-0.2-1.6,0-3.3,0.5-4.8
	c1-3.5,3.2-6.6,6.4-8.5c1.4-0.9,3-1.5,4.6-1.9c1.6-0.4,3.3-0.6,5-0.6c1.3,0,2.7,0.1,4,0.5c1.1,0.3,2.1,0.7,3.1,1.2l-1.7,5.7h-1
	l-0.7-0.8c-0.3-0.3-0.7-0.6-1.1-0.9c-0.5-0.3-1-0.5-1.5-0.7c-2.4-0.6-5-0.1-6.9,1.4c-1.4,1.2-2.4,2.8-2.9,4.6
	c-0.6,2-0.5,3.5,0.2,4.6c0.7,1,2,1.5,3.9,1.5c0.8,0,1.6-0.1,2.5-0.3c0.7-0.2,1.3-0.4,2-0.7c0.5-0.2,0.9-0.5,1.4-0.8
	c0.4-0.3,0.8-0.5,1.2-0.8h1l-1.7,5.7c-1.2,0.5-2.5,0.9-3.8,1.2C421.5,334.8,420.1,334.9,418.8,334.9z"/>
<path class="st0" d="M455.1,324c-0.9,3.2-2.8,6.1-5.5,8.1c-2.8,2-6.2,3-9.6,3c-3.8,0-6.4-1-7.9-3s-1.7-4.7-0.7-8.1
	c0.9-3.2,2.8-6.1,5.5-8.1c2.8-2,6.2-3,9.6-3c3.8,0,6.4,1,7.9,3C455.9,317.9,456.1,320.6,455.1,324z M445.1,329
	c0.6-0.6,1.2-1.2,1.6-1.9c0.5-1,1-2,1.2-3.1c0.3-1,0.5-2,0.6-3.1c0-0.7-0.1-1.4-0.4-2c-0.2-0.5-0.7-0.9-1.2-1.1
	c-0.6-0.2-1.2-0.3-1.8-0.3c-0.6,0-1.3,0.1-1.9,0.3c-0.7,0.2-1.3,0.6-1.8,1c-0.6,0.6-1.2,1.2-1.6,2c-0.6,1-1,2.1-1.3,3.2
	c-0.3,1-0.5,2-0.5,3c0,0.7,0.1,1.4,0.4,2c0.3,0.5,0.7,0.8,1.2,1c0.6,0.2,1.2,0.4,1.9,0.3c0.6,0,1.3-0.1,1.9-0.3
	C444,329.8,444.6,329.5,445.1,329L445.1,329z"/>
<path class="st0" d="M481.6,319.6l-4.4,14.7h-7l3.1-10.4c0.3-1,0.5-1.9,0.7-2.6c0.2-0.6,0.2-1.2,0.1-1.7c-0.1-0.4-0.4-0.8-0.8-1
	c-0.6-0.2-1.2-0.3-1.9-0.3c-0.7,0-1.4,0.1-2.1,0.4c-0.7,0.2-1.3,0.5-2,0.9l-4.3,14.8h-7l6.1-20.8h7l-0.7,2.3
	c1.3-0.8,2.7-1.5,4.1-2.1c1.2-0.5,2.5-0.8,3.9-0.8c1.2-0.1,2.5,0.3,3.5,0.9c0.9,0.6,1.6,1.6,1.8,2.7c1.5-1,3.1-1.9,4.8-2.6
	c1.3-0.6,2.7-0.9,4.1-1c2.3,0,3.9,0.7,4.7,2c0.8,1.3,0.9,3.3,0.1,5.8l-4,13.5h-7l3.1-10.4c0.3-1,0.5-1.9,0.7-2.6
	c0.2-0.6,0.2-1.1,0.1-1.7c-0.1-0.4-0.4-0.8-0.8-1c-0.6-0.2-1.3-0.3-1.9-0.3c-0.6,0-1.2,0.1-1.8,0.3
	C483.1,318.9,482.3,319.2,481.6,319.6z"/>
<path class="st0" d="M112.1,347.9h-0.4c-10.4-0.6-16.9-20.6-27.4-56c-1.3-4.4-2.7-9-4.1-13.7c-13.6-44.7-33.1-98.9-63.3-121.6
	c-1-0.6-1.2-1.9-0.6-2.9c0.5-0.8,1.5-1.1,2.4-0.8c0.4,0.1,10.2,2.9,27.3,15.6c26.7,20,51.2,49.7,67.8,72.4
	c2.6-9.5,10.5-33.3,32.6-67.3c16.6-25.7,37.9-51.8,63.1-77.8C241,63.5,279,31.4,322.2,0.4c0.9-0.7,2.2-0.4,2.9,0.5
	c0.6,0.9,0.5,2.1-0.4,2.8c-0.1,0.1-14.7,11.5-35.7,33.6C260.2,68,234.7,101.7,213,137.8c-27.3,45.3-53.1,104.7-78.9,181.6l-0.1,0.1
	C125.7,339.1,118.9,347.9,112.1,347.9z M30,162.9c25.2,26.7,42,74.2,54.2,114.2c1.4,4.7,2.8,9.2,4.1,13.7c8,27,15.6,52.5,23.6,53
	c3.3,0.2,9.2-4.1,18.3-25.7c25.8-77.2,51.8-136.9,79.2-182.4c21.9-36.4,47.6-70.4,76.7-101.3c2.2-2.3,4.3-4.5,6.3-6.5
	c-28.2,21.8-54.8,45.4-79.8,70.8c-25.1,25.7-46.1,51.6-62.6,77c-22.5,34.6-31.6,61.3-33.2,70.6c-0.1,0.8-0.8,1.5-1.6,1.7
	c-0.8,0.2-1.7-0.1-2.2-0.8c-16.4-22.7-41.7-54.1-69.3-74.9C39.3,168.8,34.8,165.7,30,162.9z"/>
<path class="st0" d="M327.2,70.2l-5.4,7.3l4.1-3.8c5.7,2.1,0.4,6.6-1.2,8C332.8,78.6,326.5,73.9,327.2,70.2z"/>
<path class="st0" d="M315.3,77.3c-4.2,0.4-2.2,4.1-0.2,5C315,80.6,317.3,78.2,315.3,77.3z"/>
<path class="st0" d="M115,234.3c1.2-0.9,2.2-2.1,3.3-1.6C117.5,231.1,116.7,230.6,115,234.3z"/>
<polygon class="st0" points="118.2,232.8 118.6,233.8 118.6,232.9 "/>
<path class="st0" d="M198.5,183.3c-0.2-5,2.7-5.6,3.9-9.5l5.2,1.5c1.5-3.8-2.1-3.9-2-7.7c5.1-0.6,8.3-8.1,9.7-9.2
	c2.5,0.8,1.2,3.3,1.9,4.7c2-4.5-1.6-7.8,2.6-12.1l1,0.9c6.7-14.2,22.9-24.3,36.4-35.1c-1.1,0.3-1.4-0.8-2.3-1.4
	c14.9-10.9,35.7-16.3,47.1-32.2c-9.8,3.3-29.5,2.8-36.4,14.2c-5.4-2.2-8.4,5.4-12.1,1.7c-14.4,5.7-16.3,14.9-27.4,23.5
	c-2.2,0.5-2.9-2.1-4.7-3.6c2.7-2.8,5-6.3,8.2-8.6c-2.4,0.5-4.8,1.3-7.1,2.3c1-4.1,8.8-6.1,7.1-10.4c-6.6,8.9-21.7,16.9-24.9,26.7
	c4.1-1.6,7.4-5.8,11.6-8.5c2.7,0,6.1-1.1,7.4,1c-6.7,13.7-18,17.3-25.6,29.4c-2,2.8-5.5,5.9-7.8,4.8c1-2.2-1.8-2.2-1.3-4.3
	c-1.9,4.9,6.3,6,0.7,10.4l-5.9-5.9c5.1,7.6-6.5,6.2-5.4,13.4c-3.9-0.4-3.4-4.3-1.2-7.7c-3.9,2.8-0.1,6-2.4,8.8l-3.9-6.9
	c3.3,7-5.2,4.9-8.5,5.5c1.3,1.2,7.1,2.5,3.9,6.2c-2,1.2-2.9-0.6-4.1-0.8c1.3,1.2,3,4.2,1.7,7.1c-2.4-0.7-2.1-3.7-4.1-5.1
	c-1.1,2.2-1.6,4.2-4.3,4.8c-0.4,4.8,3.1,1.5,4.1,5c-4.7,5-7.6-3.4-13.3-3.7c-0.4-6.1,1.8-12.8,1.9-16.1l-3.5,9.8
	c-2.2-1.9-7.7,3.8-7.4-2.4c-7.6,7.9-10.9,20.5-12.2,30.4c1.4-0.9,2.7-2.3,4.2-1.4c-0.4,5.2-3.5,3.4-5.8,3.6c0.3,4.2,5,5.5,7.5,8.9
	c-6.9,5.5-4.6,7.4-12.3,11.6l4.7,1.1c-5.2,3.1,1.7,6-2.6,9.7c-1.1,0-1.7-2.2-2.3-3.9c0.2,4.6-5.2,2.7-4.7,7.3l-4.2-4.7
	c-1,3.3-0.6,8.6-4.7,5.7c4,7.2-1,16.8,0.6,24.7l-4-1.3c2.3,2.5,1,6,0.4,9.5l0,0c-9.9-17.2-23.4-32.8-39.5-42.3
	c-3-3-11.8-2.1-17.2-3.4c3.5,5,6,3.3,10.3,7.4c2,4.2-1.1,9.3-1.5,14.1l2.3-4.4c6.8,1.8,0.5,4.5,7.3,5.1l-6.2,4.5
	c4.2-1.2,4,3.9,3.1,6.3l5.2-1.7c-0.4,4.5-0.2,7-3.9,10.4l4-2.7c-2,2.7,7.4,11.6-2.1,11.8c1.5,0.4,4.1,0.1,4.7,2.4l-4.2,2.5
	c2.6,2.4,5.2,5.3,3.1,7.2c-1.9-1.1-4-0.7-6.2-0.3c5.3,12.9,15.7-4,21.7,7.5l-3,1.1l4.5,1.7l-2.3,4.8c6,0.2,7.5,4.3,8.9,9.6
	c1.9,4.2,2.7,7.8,6.6,12.5c2.4,3.9,17,7.7,23.8,2.5c7.1-4.6,4.9-4.5,6.1-6c1-2.3,1.7-4.7,1.8-7.2c1.3-6.5,7.5-7.7,8.4-15l-4.9-0.4
	c5.7-4.1,12.1-21.1,24.1-22.8c-2.8-5-1.1,0.2-4.9-0.6c-3.3-9.4,4.6-8.2,8.4-11.7c-1.1-5.4-2.8,3.3-5.6-0.1c5.6-6.6-4.4-7.7,1.4-16.1
	c2.9-0.1,1,2.8,2.6,4.3c-2.6-7.6,3.6-19,6.8-28.3c7.1-9.4,16.1-23.2,26.2-31.7l-1.4-1.1c6.8-1.9,6.6-8.5,11.8-12.2L198.5,183.3z"/>
<path class="st0" d="M229.9,96l-3.2-2.9l-4.9,5.8C226.2,100.3,225.9,97.2,229.9,96z"/>
<polygon class="st0" points="235.1,107.4 237.2,104 232.3,107 "/>
<polygon class="st0" points="166.5,159.8 167.6,159.4 172.7,146.7 "/>
<path class="st0" d="M111.1,232.6c-1.6-2.1,0-4-0.9-6v6.7L111.1,232.6z"/>
<path class="st0" d="M80.5,288.2c7,3.5-0.9,4.5,6.4,2.6C86.3,287.1,82.8,289.7,80.5,288.2z"/>
<path class="st0" d="M89,302.2c0.6-1.6-0.3-2.8-1.3-3.9C84,299.8,87.8,300.6,89,302.2z"/>
<path class="st0" d="M77.7,342c-4.9,4.9-12.9,4.9-17.8,0c0,0,0,0,0,0c-2.4-2.4-3.7-5.6-3.7-8.9c0-7,5.7-12.6,12.6-12.5
	c3.3,0,6.5,1.3,8.8,3.7c2.4,2.3,3.7,5.5,3.7,8.9C81.4,336.4,80.1,339.6,77.7,342z M61.1,325.4c-2,2-3.2,4.8-3.1,7.7
	c-0.1,2.9,1.1,5.7,3.1,7.7c4.2,4.2,11,4.3,15.3,0.1c0,0,0,0,0.1-0.1c2.1-2,3.2-4.8,3.2-7.7c0-6-4.8-10.8-10.7-10.9
	C66,322.2,63.2,323.3,61.1,325.4L61.1,325.4z M68.5,326.1c1.3-0.1,2.6,0.1,3.8,0.5c1.4,0.6,2.3,2,2.2,3.5c0.1,1.1-0.4,2.1-1.3,2.7
	c-0.6,0.4-1.3,0.6-2,0.7c0.9,0.1,1.8,0.6,2.4,1.4c0.5,0.6,0.7,1.4,0.8,2.1v1c0,0.3,0,0.7,0,1c0,0.2,0,0.5,0.1,0.7l0.1,0.2h-2.2v-0.1
	c0,0,0-0.1,0-0.1v-0.4v-1.1c0-1.6-0.4-2.6-1.3-3.2c-0.9-0.4-1.8-0.5-2.7-0.5h-2v5.5h-2.4v-13.8H68.5z M71.2,328.3
	c-0.9-0.4-2-0.6-3-0.5h-2v5h2.2c0.8,0,1.6-0.1,2.3-0.3c1.2-0.6,1.8-2.1,1.2-3.3C71.7,328.8,71.4,328.5,71.2,328.3L71.2,328.3z"/>
</svg>
